<svg width="150" height="150" viewBox="0 0 150 150" fill="none" xmlns="http://www.w3.org/2000/svg">
<path d="M75.9224 67.2363C75.8128 67.0963 75.6727 66.983 75.5129 66.9051C75.353 66.8272 75.1774 66.7867 74.9996 66.7867C74.8217 66.7867 74.6462 66.8272 74.4863 66.9051C74.3264 66.983 74.1863 67.0963 74.0767 67.2363L57.6705 87.9932C57.5352 88.1659 57.4513 88.3732 57.4283 88.5913C57.4053 88.8095 57.4442 89.0297 57.5404 89.2268C57.6367 89.424 57.7865 89.59 57.9727 89.706C58.1589 89.822 58.374 89.8833 58.5933 89.8828H69.4185V125.391C69.4185 126.035 69.9459 126.562 70.5904 126.562H79.3795C80.024 126.562 80.5513 126.035 80.5513 125.391V89.8975H91.4058C92.3873 89.8975 92.9293 88.7695 92.3287 88.0078L75.9224 67.2363Z" fill="black"/>
<path d="M118.857 53.7158C112.148 36.0205 95.0537 23.4375 75.0293 23.4375C55.0049 23.4375 37.9102 36.0059 31.2012 53.7012C18.6475 56.9971 9.375 68.4375 9.375 82.0312C9.375 98.2178 22.4854 111.328 38.6572 111.328H44.5312C45.1758 111.328 45.7031 110.801 45.7031 110.156V101.367C45.7031 100.723 45.1758 100.195 44.5312 100.195H38.6572C33.7207 100.195 29.0771 98.2324 25.6201 94.6729C22.1777 91.1279 20.3467 86.3525 20.5078 81.4014C20.6396 77.5342 21.958 73.9014 24.3457 70.8398C26.792 67.7197 30.2197 65.4492 34.0283 64.4385L39.5801 62.9883L41.6162 57.627C42.876 54.2871 44.6338 51.167 46.8457 48.3398C49.0294 45.5377 51.616 43.0745 54.5215 41.0303C60.542 36.7969 67.6318 34.5557 75.0293 34.5557C82.4268 34.5557 89.5166 36.7969 95.5371 41.0303C98.4521 43.0811 101.03 45.542 103.213 48.3398C105.425 51.167 107.183 54.3018 108.442 57.627L110.464 62.9736L116.001 64.4385C123.94 66.5771 129.492 73.7988 129.492 82.0312C129.492 86.8799 127.603 91.4502 124.175 94.8779C122.494 96.5688 120.494 97.9093 118.291 98.8221C116.089 99.7348 113.727 100.202 111.343 100.195H105.469C104.824 100.195 104.297 100.723 104.297 101.367V110.156C104.297 110.801 104.824 111.328 105.469 111.328H111.343C127.515 111.328 140.625 98.2178 140.625 82.0312C140.625 68.4521 131.382 57.0264 118.857 53.7158Z" fill="black"/>
</svg>
