<svg width="924" height="650" viewBox="0 0 924 650" fill="none" xmlns="http://www.w3.org/2000/svg">
<g opacity="0.504511">
<path fill-rule="evenodd" clip-rule="evenodd" d="M855.524 466.977C866.999 532.382 588.719 575.042 349.196 545.27C109.674 515.498 -0.207237 399.235 114.089 337.286C228.385 275.336 844.049 401.573 855.524 466.977Z" fill="#F2F2F2"/>
</g>
<path fill-rule="evenodd" clip-rule="evenodd" d="M511.278 194.436C515.608 191.913 522.325 193.521 526.684 195.01C528.364 195.584 532.656 197.42 535.839 199.486C535.418 198.054 535.043 196.609 534.716 195.152C533.369 189.162 532.441 183.059 531.995 176.991C531.879 175.409 532.03 173.64 532.184 171.849C532.236 171.242 532.288 170.632 532.33 170.026C532.155 169.883 532.038 169.686 531.988 169.418C531.97 169.529 531.96 169.618 531.952 169.686C531.939 169.793 531.932 169.849 531.911 169.856C531.888 169.863 531.848 169.816 531.765 169.72C531.734 169.683 531.697 169.64 531.652 169.589C528.431 165.917 525.725 161.779 525.354 157.23C525.039 153.372 529.197 146.072 535.092 151.126C537.729 153.382 537.044 169.232 533.083 170.203C534.141 175.455 535.472 180.698 537.138 185.875C537.388 185.841 537.643 185.838 537.895 185.864C537.871 184.578 537.868 183.173 537.937 182.69C538.531 178.53 543.089 170.085 550.345 171.725C555.921 172.985 552.504 178.172 550.606 180.443C547.551 184.098 544.096 185.681 539.72 187.582C539.633 188.367 538.968 188.824 538.183 188.972C541.114 197.332 544.963 205.486 550.001 213.187L550.135 212.697L550.135 212.697C550.775 210.359 551.521 207.634 551.993 207.062C554.462 204.066 559.928 200.407 564.969 202.179C575.555 205.908 564.064 216.623 555.051 217.789C554.677 218.184 554.28 218.501 553.859 218.683C555.61 221.008 557.481 223.284 559.484 225.502C562.487 228.838 565.715 232.163 569.099 235.469C569.203 232.883 570.543 227.12 570.923 226.501C573.234 222.74 579.894 218.871 585.298 221.542C591.376 224.554 585.865 230.246 582.399 232.821C580.978 233.877 573.95 237.747 571.471 237.765C579.647 245.56 588.671 253.222 597.846 260.607C597.086 257.301 596.093 248.196 596.204 247.186C596.773 241.97 601.269 233.628 610.126 235.661C618.718 237.63 614.917 246.296 611.976 250.427C610.194 252.928 607.731 255.468 604.76 257.212C604.224 257.526 603.525 257.782 602.827 258.038L602.827 258.039C601.985 258.347 601.145 258.655 600.596 259.063C600.106 259.427 599.956 259.844 599.807 260.258C599.65 260.695 599.494 261.129 598.942 261.49C603.9 265.464 608.893 269.355 613.815 273.137C616.137 274.923 618.501 276.674 620.889 278.403C622.195 277.989 624.058 278.533 623.961 279.943C623.947 280.148 623.885 280.325 623.801 280.487C625.61 281.771 627.431 283.045 629.267 284.306C629.225 283.939 629.237 283.421 629.321 282.705C628 284.139 628.055 282.051 628.097 280.46C628.112 279.897 628.125 279.397 628.076 279.136C627.882 278.113 627.63 277.101 627.38 276.09L627.38 276.09C626.844 273.93 626.31 271.777 626.336 269.548C626.394 264.816 630.323 256.885 638.592 259.703C646.196 262.288 643.43 269.301 640.561 273.697C638.745 276.479 636.261 278.963 633.664 281.341C633.201 281.766 632.687 282.341 632.178 282.91C631.423 283.755 630.679 284.587 630.128 284.897C637.187 289.723 644.413 294.406 651.638 299.09L651.64 299.091L651.64 299.092C654.877 301.19 658.114 303.288 661.336 305.399C661.476 304.936 661.592 304.476 661.692 304.047C661.49 304.22 661.216 304.301 660.865 304.286C660.771 303.931 660.635 303.459 660.472 302.893L660.472 302.892C658.482 295.972 652.421 274.896 668.832 278.98C680.856 281.982 672.369 300.334 663.401 306.753C668.843 310.338 674.233 313.968 679.498 317.706C683.307 320.411 687.004 323.209 690.56 326.1C688.719 322.357 686.986 317.511 688.124 313.654C689.781 308.042 697.544 302.742 705.123 305.936C714.572 309.934 707.303 315.395 700.486 320.516C697.006 323.131 693.643 325.657 692.684 327.854C703.988 337.338 713.639 347.873 720.087 359.874C727.1 372.925 733.611 390.462 730.01 405.063C730.675 398.643 727.832 390.581 725.835 384.92C725.563 384.149 725.307 383.422 725.077 382.751C722.077 373.97 717.814 365.427 712.197 357.43C703.2 344.623 691.316 333.751 677.595 323.88C674.471 324.711 671.078 326.249 668.267 327.522L668.267 327.522C666.543 328.303 665.039 328.985 663.951 329.343C658.701 331.071 648.621 333.548 645.277 328.105C641.988 322.754 650.382 319.761 655.584 318.561C660.611 317.404 665.143 317.543 669.833 318.492C662.57 313.58 655.13 308.823 647.692 304.067L647.692 304.067C646.324 303.192 644.956 302.318 643.589 301.442C641.698 302.625 639.61 304.335 637.392 306.15C630.355 311.911 622.018 318.737 614.572 313.16C603.335 304.745 624.826 296.191 633.982 296.859C635.106 296.94 636.194 297.121 637.254 297.367C627.917 291.32 618.724 285.148 610.03 278.542C608.47 278.759 605.986 280.511 603.003 282.615L603.002 282.615C596.297 287.344 587.066 293.854 580.112 288.728C575.093 285.028 576.812 279.265 581.664 275.97C586.534 272.661 593.596 272.666 599.598 273.781C602.193 274.26 604.587 275.175 606.818 276.291C606.866 276.293 606.913 276.295 606.959 276.297L607.095 276.302C598.54 269.733 589.933 263.017 581.643 256.071C581.498 256.107 581.35 256.143 581.201 256.18C580.7 256.649 579.861 256.82 579.092 256.717C578.668 256.827 578.235 256.941 577.794 257.058C571.227 258.787 562.787 261.01 556.242 260.051C551.425 259.345 547.055 256.358 551.132 252.679C554.447 249.688 563.441 250.117 567.827 250.826C569.967 251.172 572.297 252.175 574.635 253.182L574.635 253.182C575.617 253.604 576.601 254.028 577.572 254.403C577.825 254.015 578.265 253.766 578.767 253.646C570.58 246.666 562.769 239.445 555.684 231.91C553.539 232.164 551.161 232.883 548.708 233.624C542.805 235.408 536.47 237.322 531.923 233.199C525.211 227.111 537.834 223.557 543.835 224.136C545.862 224.331 547.859 224.769 549.788 225.348C544.633 219.144 540.695 212.513 537.929 205.549C537.914 205.556 537.899 205.562 537.884 205.568C537.873 205.572 537.863 205.577 537.853 205.581C537.814 205.598 537.775 205.614 537.727 205.63C537.769 205.613 537.805 205.595 537.842 205.577L537.842 205.577L537.842 205.577C537.869 205.564 537.896 205.551 537.925 205.538C537.649 204.841 537.384 204.141 537.132 203.439C536.663 203.24 536.225 203.093 536.015 203.033C538.741 204.467 527.239 205.169 525.085 205.301C520.323 205.591 513.943 205.699 510.449 202.722C507.515 200.222 507.686 196.528 511.278 194.436ZM730.521 405.083C730.319 407.199 729.818 409.137 728.882 410.735C729.584 408.915 730.122 407.025 730.521 405.083Z" fill="#F2F2F2"/>
<path opacity="0.2" fill-rule="evenodd" clip-rule="evenodd" d="M295.052 59.305C291.892 57.4824 286.987 58.6467 283.803 59.7244C282.577 60.14 279.442 61.4689 277.117 62.9642C277.425 61.9283 277.699 60.8833 277.939 59.8299C278.925 55.4983 279.606 51.0847 279.934 46.6969C280.02 45.5526 279.91 44.2741 279.799 42.9788L279.799 42.9786L279.799 42.9764C279.761 42.5382 279.724 42.0981 279.693 41.6607C279.821 41.5571 279.907 41.4142 279.943 41.2205C279.956 41.3008 279.964 41.3652 279.97 41.4144C279.979 41.4921 279.983 41.532 279.999 41.5371C280.016 41.5424 280.045 41.5086 280.106 41.4389C280.129 41.4126 280.156 41.3811 280.189 41.3446C282.542 38.6882 284.519 35.6952 284.793 32.4057C285.025 29.6159 281.992 24.3387 277.686 27.9944C275.759 29.627 276.252 41.0876 279.143 41.7889C278.368 45.5869 277.394 49.3785 276.175 53.1221C275.992 53.0979 275.807 53.0958 275.623 53.1148C275.641 52.1842 275.643 51.1687 275.593 50.8196C275.162 47.8118 271.838 41.7062 266.539 42.8939C262.467 43.8067 264.96 47.5567 266.344 49.1979C268.573 51.8402 271.095 52.9838 274.289 54.3571C274.352 54.9251 274.837 55.2551 275.41 55.3622C273.267 61.408 270.452 67.3049 266.77 72.8752L266.672 72.5211C266.206 70.8309 265.663 68.8604 265.318 68.4466C263.517 66.2809 259.528 63.6363 255.847 64.9197C248.115 67.6185 256.5 75.3636 263.08 76.2039C263.353 76.4893 263.643 76.7188 263.951 76.8503C262.671 78.5318 261.303 80.1784 259.84 81.7826C257.646 84.1956 255.287 86.6008 252.815 88.9921C252.74 87.1224 251.765 82.9555 251.488 82.5079C249.802 79.7894 244.941 76.9936 240.994 78.9267C236.555 81.1063 240.576 85.2202 243.106 87.0817C244.142 87.8449 249.272 90.6413 251.082 90.6533C245.109 96.2923 238.516 101.835 231.814 107.178C232.37 104.787 233.1 98.2032 233.019 97.4726C232.606 93.7013 229.327 87.6704 222.86 89.1427C216.585 90.5689 219.356 96.8344 221.502 99.8208C222.801 101.628 224.599 103.465 226.767 104.725C227.158 104.952 227.668 105.137 228.178 105.322L228.178 105.322C228.792 105.545 229.406 105.768 229.806 106.062C230.163 106.325 230.273 106.627 230.381 106.926C230.496 107.242 230.61 107.555 231.013 107.817C227.391 110.691 223.743 113.506 220.148 116.243C218.451 117.535 216.724 118.801 214.98 120.052C214.026 119.754 212.666 120.147 212.736 121.167C212.747 121.315 212.792 121.443 212.853 121.56C211.531 122.489 210.201 123.411 208.86 124.323C208.891 124.058 208.882 123.683 208.821 123.166C209.785 124.202 209.746 122.692 209.716 121.542C209.705 121.135 209.696 120.773 209.732 120.584C209.875 119.845 210.059 119.113 210.242 118.381C210.635 116.819 211.026 115.262 211.007 113.651C210.967 110.23 208.102 104.496 202.063 106.535C196.51 108.407 198.527 113.477 200.619 116.655C201.943 118.666 203.756 120.462 205.651 122.181C205.989 122.488 206.364 122.903 206.735 123.315C207.286 123.925 207.829 124.527 208.231 124.751C203.074 128.242 197.796 131.631 192.518 135.021L192.517 135.021C190.153 136.539 187.789 138.057 185.435 139.585C185.333 139.25 185.248 138.918 185.176 138.607C185.323 138.732 185.523 138.791 185.78 138.779C185.848 138.522 185.948 138.181 186.067 137.772L186.067 137.771C187.523 132.767 191.959 117.525 179.975 120.484C171.194 122.657 177.382 135.925 183.926 140.564C179.951 143.158 176.014 145.784 172.168 148.489C169.386 150.446 166.685 152.47 164.088 154.562C165.433 151.854 166.701 148.35 165.872 145.561C164.665 141.503 159 137.674 153.464 139.985C146.563 142.879 151.868 146.826 156.843 150.527C159.383 152.416 161.837 154.242 162.536 155.831C154.278 162.691 147.226 170.312 142.512 178.992C137.385 188.431 132.623 201.113 135.245 211.671C134.763 207.028 136.843 201.198 138.303 197.104C138.502 196.546 138.69 196.021 138.858 195.535C141.052 189.185 144.169 183.006 148.274 177.223C154.849 167.959 163.532 160.094 173.554 152.953C175.835 153.553 178.312 154.664 180.363 155.584C181.622 156.148 182.72 156.641 183.514 156.899C187.347 158.147 194.705 159.935 197.15 155.999C199.553 152.128 193.426 149.966 189.629 149.1C185.959 148.265 182.649 148.367 179.225 149.055C184.53 145.501 189.964 142.059 195.397 138.618L195.398 138.618L195.402 138.615C196.4 137.983 197.398 137.351 198.395 136.719C199.775 137.573 201.299 138.809 202.917 140.121C208.052 144.285 214.136 149.218 219.576 145.184C227.784 139.095 212.097 132.916 205.411 133.402C204.59 133.461 203.796 133.592 203.022 133.77C209.842 129.395 216.557 124.929 222.908 120.15C224.048 120.307 225.86 121.573 228.038 123.093C232.932 126.511 239.668 131.215 244.748 127.507C248.414 124.83 247.162 120.663 243.621 118.282C240.067 115.891 234.91 115.897 230.527 116.704C228.633 117.052 226.885 117.714 225.255 118.521L225.179 118.524L225.052 118.53C231.302 113.777 237.59 108.918 243.646 103.893C243.752 103.919 243.86 103.945 243.969 103.972C244.334 104.311 244.947 104.434 245.508 104.359C245.818 104.439 246.134 104.522 246.456 104.606C251.25 105.854 257.411 107.459 262.19 106.764C265.708 106.252 268.9 104.091 265.925 101.432C263.506 99.2697 256.939 99.583 253.736 100.097C252.174 100.348 250.472 101.073 248.764 101.802L248.764 101.802C248.047 102.108 247.328 102.414 246.619 102.686C246.435 102.406 246.113 102.225 245.747 102.139C251.728 97.0895 257.435 91.8659 262.612 86.4155C264.177 86.5981 265.913 87.1172 267.704 87.6525C272.013 88.9407 276.638 90.3232 279.959 87.3406C284.863 82.9363 275.648 80.3704 271.266 80.7903C269.787 80.9319 268.328 81.2493 266.919 81.6683C270.687 77.1812 273.565 72.3854 275.588 67.349C275.607 67.3564 275.625 67.3641 275.643 67.3718L275.643 67.3718C275.672 67.3838 275.7 67.3959 275.735 67.4074C275.72 67.4012 275.706 67.3948 275.692 67.3883C275.678 67.3819 275.665 67.3755 275.651 67.3691C275.632 67.3595 275.612 67.3499 275.591 67.3406C275.793 66.8367 275.987 66.3306 276.171 65.8227C276.513 65.6785 276.833 65.5725 276.986 65.5288C274.995 66.5667 283.393 67.0709 284.966 67.1653C288.443 67.3737 293.101 67.4503 295.653 65.2969C297.797 63.488 297.674 60.8169 295.052 59.305ZM134.724 211.254C134.878 212.664 135.334 213.951 136.233 215.005C135.573 213.8 135.079 212.545 134.724 211.254Z" fill="#C1DEE2"/>
<g opacity="0.7">
<path fill-rule="evenodd" clip-rule="evenodd" d="M693.822 290.77C707.474 290.062 724.359 298.031 725.815 312.871C726.873 323.653 726.546 334.405 728.183 345.172C729.492 353.776 732.261 362.036 736.038 369.874C739.67 377.411 747.203 383.827 749.162 391.879C750.411 397.01 749.712 404.227 747.99 409.245C745.896 415.347 747.009 414.865 751.182 419.985C759.359 430.018 766.723 440.307 771.93 452.29C779.43 469.55 784.348 489.725 781.564 508.618C781.21 511.017 780.79 519.627 777.486 520.229C773.796 520.902 775.522 515.978 775.719 514.387C776.974 504.238 778.09 495.367 776.575 485.059C770.732 445.288 742.201 419.085 723.623 385.331C722.602 383.59 720.446 379.445 718.947 376.711C716.58 372.393 714.201 364.179 710.997 360.977C704.963 354.947 710.511 367.071 711.686 369.385C713.173 372.313 714.808 375.425 716.332 377.99C723.302 389.882 731.082 402.862 738.28 415.121C707.147 422.214 685.221 384.785 676.866 360.178C669.982 339.905 661.746 292.505 693.822 290.77Z" fill="#69A1AC"/>
<path fill-rule="evenodd" clip-rule="evenodd" d="M876.805 253.121C853.983 254.932 839.331 269.992 832.511 291.056C828.835 302.407 828.413 314.068 826.37 325.734C823.298 343.284 816.686 356.585 803.764 369.089C799.762 372.961 796.812 376.937 794.716 381.191C790.554 385.438 786.931 390.244 784.269 396.12C780.869 403.624 779.907 412.628 783.832 420.109C784.888 422.121 787.521 426.158 790.25 427.992C780.033 449.752 774.415 473.584 775.048 497.386C775.431 511.753 776.132 526.127 776.951 540.477C777.171 544.33 778.426 550.693 780.31 544.231C782.035 538.32 779.872 529.041 779.672 522.867C778.698 492.786 777.866 465.435 790.248 437.331C791.547 434.385 792.924 431.463 794.357 428.565C794.442 428.516 794.52 428.457 794.599 428.4C794.653 428.442 794.703 428.487 794.758 428.529C794.849 428.365 794.975 428.171 795.121 427.954C795.532 427.529 795.891 426.993 796.233 426.395C797.331 424.873 798.574 423.084 798.581 422.105C798.581 422.098 798.577 422.086 798.577 422.078C806.242 409.565 815.022 397.742 823.99 386.149C823.923 386.234 833.718 372.897 832.204 380.272C831.474 383.827 824.269 390.595 821.359 394.36C814.922 402.735 807.363 413.348 801.082 423.61C800.237 424.096 799.043 426.48 798.179 428.257C797.702 429.157 797.257 430.064 796.82 430.855C819.077 438.208 836.39 423.396 848.196 406.168C848.21 406.147 848.223 406.126 848.236 406.106C851.829 401.346 855.509 396.619 860.107 392.856C867.777 386.576 875.992 385.468 885.036 382.378C909.7 373.951 920.186 341.987 923.516 318.27C927.274 291.513 908.894 250.483 876.805 253.121Z" fill="#89C5CC"/>
<path fill-rule="evenodd" clip-rule="evenodd" d="M831.723 178.19C808.299 202.569 796.982 236.383 788.022 268.172C778.014 303.676 771.403 339.728 771.149 376.642C770.983 400.895 770.323 425.299 771.739 449.523C772.241 458.126 773.099 466.744 774.462 475.255C774.575 475.955 777.626 494.958 780.545 490.53C782.205 488.011 777.417 470.817 777.056 467.953C775.021 451.822 774.548 435.573 774.647 419.325C774.81 392.575 774.022 365.961 776.733 339.309C777.137 335.33 777.457 331.151 778.402 327.258C779.406 323.119 778.127 324.926 781.396 323.287C784.573 321.694 788.498 321.922 791.794 319.924C804.866 311.997 811.553 291.635 816.758 278.275C822.711 262.997 826.329 246.706 829.219 230.628C831.341 218.816 832.858 207.075 833.716 195.11C833.987 191.339 834.003 187.396 834.744 183.688C834.944 182.688 835.945 180.918 835.909 180.033C835.832 178.158 834.701 177.056 834.608 175.481C833.627 176.363 832.665 177.267 831.723 178.19Z" fill="#89C5CC"/>
<path fill-rule="evenodd" clip-rule="evenodd" d="M704 503C704 543.317 736.683 576 777 576C817.317 576 850 543.317 850 503" fill="#89C5CC"/>
<path fill-rule="evenodd" clip-rule="evenodd" d="M827.028 439.085C845.095 437.753 865.271 452.329 873.986 467.497C881.012 479.726 879.828 495.785 875.489 508.778C872.583 517.476 866.241 529.878 855.665 529.999C842.433 530.15 841.795 513.796 841.539 504.236C841.199 491.525 839.593 480.453 829.577 471.789C828.341 470.72 827.043 469.719 825.746 468.718C824.594 467.829 823.443 466.941 822.334 466.005C822.157 465.855 821.978 465.706 821.8 465.556C818.258 462.579 814.539 459.453 814.086 454.546C813.43 447.436 817.443 446.156 823.571 447.477C823.769 447.52 824.306 447.723 825.036 448C828.166 449.186 834.844 451.718 833.581 448.692C833.105 447.552 831.368 446.648 829.175 445.971C823.501 445.354 816.733 444.638 814.787 445.066C793.792 449.672 785.617 478.755 783.446 497.233C783.212 499.227 783.023 501.228 782.857 503.232H779C779.268 498.393 779.621 493.562 780.43 488.776C783.525 470.473 793.2 443.591 814.42 440.62C815.203 440.51 818.083 440.491 821.571 440.696C823.224 439.772 825.076 439.213 827.028 439.085Z" fill="#69A1AC"/>
</g>
<g opacity="0.5">
<path fill-rule="evenodd" clip-rule="evenodd" d="M200.223 157.445C204.425 151.453 212.224 136.235 218.138 134.094C221.948 132.715 220.837 146.98 220.884 149.7C221.067 160.224 220.043 170.681 218.778 181.116C216.498 199.937 209.045 216.697 198.822 232.715C193.562 240.957 187.391 249.3 178.845 254.442C174.912 256.811 170.179 257.207 166.294 259.248C161.769 261.623 164.233 259.703 162.194 264.417C159.363 270.963 158.457 279.408 157.147 286.392C151.132 318.455 136.568 487.945 139.093 520.558C139.317 523.449 135.287 524.14 135.085 520.611C134.016 501.9 143.27 372.322 147.94 329.947C152.609 287.571 157.334 250.134 162.071 235.474C167.819 217.687 178.199 196.298 186.84 179.711C190.854 172.006 195.229 164.565 200.223 157.445Z" fill="#69A1AC"/>
<path fill-rule="evenodd" clip-rule="evenodd" d="M231.414 365.278C242.349 357.25 254.186 372.401 244.29 380.43C238.82 384.868 233.101 383.29 229.882 379.591C227.792 382.139 225.836 384.803 223.956 387.052C218.229 393.909 212.817 400.928 207.644 408.111C196.898 423.035 187.689 438.801 178.06 454.278C168.558 469.554 159.132 484.908 150.519 500.571C143.223 513.841 133.498 529.452 131 544C134.79 513.146 149.172 483.49 166.298 456.291C183.285 429.314 202.779 399.853 229.081 378.564C226.404 374.627 226.33 369.008 231.414 365.278Z" fill="#C1DEE2"/>
<path fill-rule="evenodd" clip-rule="evenodd" d="M23.9132 290.031C30.0324 291.227 40.0312 305.07 45.0753 310.344C51.0699 316.612 56.5084 323.292 61.6349 330.292C72.6711 345.358 82.5411 361.376 90.9339 378.08C104.616 405.311 115.578 433.265 123.533 462.918C128.403 481.069 131.556 499.883 133.424 518.565C133.777 522.089 137.471 549.253 132.148 549.985C127.361 550.644 128.84 529.359 128.609 526.463C125.998 493.798 118.177 462.015 107.299 431.226C104.929 424.519 102.728 416.304 98.9381 410.268C96.2092 405.921 98.9186 407.437 94.1228 405.792C90.0049 404.378 85.3131 404.724 81.0963 402.993C71.9356 399.237 64.6006 391.944 58.1709 384.608C45.6758 370.351 35.774 354.928 30.6126 336.66C27.7495 326.532 25.1184 316.344 23.6583 305.902C23.2806 303.203 19.9718 289.26 23.9132 290.031Z" fill="#69A1AC"/>
<path fill-rule="evenodd" clip-rule="evenodd" d="M48.0614 59.716C71.1113 99.6904 90.0528 143.601 102.283 188.076C109.694 215.023 114.876 242.675 120.025 270.126C127.997 312.632 135.538 355.134 137.683 398.395C139.841 441.906 144.108 492.092 129.861 534C136.978 491.452 130.202 446.162 129.002 403.35C128.429 382.912 126.768 362.674 124.588 342.355C122.473 322.645 119.018 303.029 115.801 283.474C114.234 273.95 112.588 264.441 110.912 254.937C110.411 252.101 110.2 243.687 108.401 241.75C106.591 239.8 97.3543 239.005 94.4544 237.574C88.6149 234.693 83.1221 230.6 78.2609 226.275C68.9418 217.984 60.8347 207.151 54.4359 196.472C39.6307 171.764 33.7116 141.61 34.0108 112.994C34.0682 107.438 43.0034 47.61 39.4149 46.7861C39.631 46.533 39.8353 46.2718 40.028 46C42.7448 50.5488 45.4108 55.1284 48.0614 59.716Z" fill="#89C5CC"/>
<path fill-rule="evenodd" clip-rule="evenodd" d="M296.846 203.887C297.202 203.374 299.517 199.807 298.351 200.035C300.724 199.57 295.087 203.969 301 201.27C298.192 203.922 299.813 207.366 299.85 210.935C299.911 216.73 298.942 222.476 297.851 228.146C296.126 237.109 293.557 245.823 289.828 254.159C281.701 272.326 267.901 289.814 251.518 301.172C243.43 306.779 235.504 308.689 226.28 311.27C220.453 312.901 219.991 315.915 216.898 321.569C210.46 333.345 204.136 345.078 198.457 357.251C191.677 371.788 185.095 386.34 178.886 401.132C157.969 450.957 140.945 502.578 132.005 556C131.786 524.519 139.069 492.095 148.255 462.088C154.947 440.226 163.658 419.151 172.95 398.29C175.201 393.236 178.613 386.735 179.57 381.155C180.239 377.245 178.192 373.486 177.255 369.367C173.601 353.33 173.863 335.363 177.071 319.24C180.609 301.461 190.839 293.209 208.145 290.691C214.474 289.769 222.519 290.107 228.322 287.408C234.645 284.47 237.253 274.81 240.849 268.61C250.506 251.953 261.98 235.979 275.155 221.945C278.803 218.059 282.726 214.473 286.888 211.15C289.513 209.053 295.058 206.47 296.846 203.887Z" fill="#89C5CC"/>
<path fill-rule="evenodd" clip-rule="evenodd" d="M97.845 527.729C97.3997 524.71 99.7396 522 102.791 522H164.209C167.26 522 169.6 524.71 169.155 527.729L164.408 559.918C162.961 569.73 154.541 577 144.622 577H122.378C112.459 577 104.039 569.73 102.592 559.918L97.845 527.729Z" fill="#C1DEE2"/>
</g>
<path fill-rule="evenodd" clip-rule="evenodd" d="M47.4177 538.456C47.4177 559.743 49.0976 577 71.6456 577C94.1935 577 95.8734 559.743 95.8734 538.456" fill="#F2F2F2"/>
<path fill-rule="evenodd" clip-rule="evenodd" d="M78.3534 525.174C77.5269 526.603 76.79 528.061 76.139 529.54C76.116 526.493 76.2845 523.424 76.7446 520.313C77.531 514.983 78.7322 509.682 79.8609 504.388C80.6721 500.584 80.6208 493.752 83.6994 490.72C84.5436 490.065 84.7468 491.351 84.7468 491.908C84.7575 492.026 84.7445 489.632 83.9251 490.049C79.0544 492.564 77.4763 500.474 75.9169 504.434C73.6418 510.215 71.7061 516.124 70.909 522.138C70.7076 523.657 70.598 525.176 70.5727 526.692C70.4071 526.287 70.2516 525.878 70.0796 525.474C67.2684 518.881 63.4747 512.447 58.7431 506.514C57.5784 505.054 42.9342 490.649 41.7878 492.854C41.9009 493.174 42.1377 493.44 42.4988 493.651C42.52 493.675 42.5206 493.662 42.5083 493.626C43.3683 495.016 45.8137 497.161 46.5754 498.379C48.4923 501.442 49.9821 504.693 51.4961 507.882C54.6948 514.622 57.6621 521.429 60.5386 528.25C61.2084 529.839 61.9065 531.419 62.6187 532.994C55.2769 522.405 45.4826 512.791 32 507.287C36.6049 509.63 39.624 514.037 42.7339 517.412C46.4846 521.483 50.4351 525.444 54.1929 529.51C58.6253 534.307 63.8405 539.358 68.1038 544.666C72.2333 553.336 76.2462 562.015 78.7234 571.128C77.7084 567.98 78.6438 563.628 78.4701 560.324C78.3322 557.693 78.0247 555.084 77.6035 552.48C78.1243 553.655 78.5732 554.83 78.7764 555.924C78.5908 554.09 78.377 552.268 78.1472 550.455C78.7369 548.758 79.316 547.175 79.7072 545.87C81.7118 539.179 84.0988 532.602 87.3495 526.193C90.3574 520.264 93.8077 514.41 97.5673 508.735C99.321 506.089 101.099 503.453 102.866 500.812C104.022 499.083 105.123 496.316 106.733 494.659C96.3261 504.174 84.956 513.757 78.3534 525.174Z" fill="#F2F2F2"/>
<path fill-rule="evenodd" clip-rule="evenodd" d="M893.633 123.827C890.65 113.876 883.646 106.087 876.375 98.9509C862.22 85.058 854.607 76.4682 849.562 56.1455C846.595 44.1932 843.575 31.5275 834.165 22.856C827.313 16.5412 815.521 11.2357 806.358 15.7576C792.261 24.1716 788.475 41.4384 789.897 56.8999C791.659 76.0634 800.61 87.8795 817.807 94.9379C827.497 98.9132 833.938 104.158 839.198 113.298C843.405 120.607 845.858 129.759 851.145 136.384C859.05 146.288 868.941 150.691 881.134 149.046C869.714 128.035 856.371 106.826 840.278 89.135C838.771 87.3565 829.886 80.5491 831.678 77.5179C833.652 74.1805 842.774 86.7174 842.709 86.6416C847.386 92.0102 851.714 97.715 855.963 103.475C855.953 103.48 855.94 103.483 855.928 103.489C860.304 109.399 864.644 115.397 868.902 121.469C870.624 124.038 872.3 126.639 873.905 129.306C876.259 133.219 879.996 144.325 883.849 146.731C884.673 147.245 885.436 147.533 886.148 147.651C888.777 151.956 891.335 156.294 893.768 160.685C900.121 172.151 905.574 184.257 908.076 197.202C908.807 200.98 908.29 215.114 910.869 217.841C915.585 222.83 914.203 213.223 913.921 210.323C911.579 186.31 902.958 165.851 890.441 145.663C894.286 140.641 894.842 127.859 893.633 123.827Z" fill="#F2F2F2"/>
<path fill-rule="evenodd" clip-rule="evenodd" d="M732.131 135.43C737.102 129.573 749.052 128.579 756.361 128.971C765.404 129.456 774.694 131.658 783.298 134.32C797.471 138.704 811.244 146.706 823.727 154.451C825.231 155.384 843.764 166.529 842.124 168.485C840.498 170.423 822.305 157.184 818.25 154.902C809.597 150.032 801.662 144.272 792.124 141.055C782.249 137.724 771.805 136.405 761.42 136.496C760.087 136.508 755.74 135.579 755.646 137.551C755.554 139.479 762.748 138.473 764.016 138.485C769.255 138.533 774.527 139.026 779.691 139.934C789.368 141.635 798.465 145.061 806.753 150.317C804.44 155.694 798.897 158.173 793.081 156.828C788.055 155.664 783.156 152.795 778.234 151.966C774.845 151.395 771.451 151.735 768.164 152.69C759.494 155.209 754.494 160.371 744.961 156.78C737.489 153.966 724.991 143.853 732.131 135.43Z" fill="#F2F2F2"/>
<path fill-rule="evenodd" clip-rule="evenodd" d="M710.752 41.0513C699.714 40.2462 687.388 49.0557 682.063 58.2232C677.771 65.6147 678.494 75.3207 681.145 83.1734C682.92 88.4307 686.795 95.9263 693.257 95.9994C701.341 96.0908 701.73 86.2066 701.887 80.4283C702.094 72.7462 703.076 66.054 709.195 60.8177C709.95 60.1715 710.743 59.5664 711.536 58.9614C712.239 58.4243 712.943 57.8873 713.62 57.3217C713.728 57.2313 713.837 57.1408 713.946 57.0501C716.11 55.251 718.382 53.3615 718.659 50.3961C719.06 46.0986 716.608 45.3252 712.864 46.1236C712.743 46.1493 712.415 46.2724 711.969 46.4397C710.057 47.1566 705.977 48.6865 706.749 46.8577C707.039 46.1686 708.101 45.6225 709.44 45.2134C712.907 44.8405 717.042 44.4078 718.231 44.6663C731.058 47.4502 736.052 65.0278 737.378 76.1957C737.529 77.4603 737.649 78.7292 737.753 80H740.105C739.94 77.0154 739.725 74.0357 739.221 71.0845C737.331 60.0223 731.419 43.7749 718.455 41.9794C717.977 41.9125 716.217 41.9012 714.086 42.0249C713.076 41.4665 711.945 41.1289 710.752 41.0513Z" fill="#F2F2F2"/>
<path fill-rule="evenodd" clip-rule="evenodd" d="M298.181 254.584C305.455 258.971 312.602 261.091 315.957 260.226C324.37 258.056 325.144 227.257 318.634 215.115C312.125 202.974 278.66 197.681 276.974 221.738C276.388 230.087 279.892 237.539 285.068 243.619L275.787 286.909H302.747L298.181 254.584Z" fill="#B28B67"/>
<path fill-rule="evenodd" clip-rule="evenodd" d="M321.18 220.567C320.913 218.993 320.26 217.245 319.733 215.756C319.054 213.837 318.027 212.106 316.896 210.475C314.767 207.404 312.214 204.631 309.394 202.33C304.244 198.126 297.688 195.701 291.241 196.488C287.986 196.886 284.826 198.128 282.136 200.197C279.707 202.065 277.369 204.816 274.223 205.013C270.799 205.228 267.661 202.204 264.915 200.337C261.819 198.231 258.526 196.697 254.908 196.101C248.846 195.102 243.152 197.151 238.975 202.128C234.529 207.424 231.298 215.19 234.217 222.207C234.76 223.511 235.458 224.611 236.46 225.522C237.378 226.358 238.782 227.247 239.154 228.583C239.55 230.002 238.368 231.833 237.91 233.114C237.253 234.949 236.714 236.875 236.905 238.87C237.22 242.146 239.277 245.273 241.45 247.425C243.66 249.616 246.38 250.873 249.286 251.452C251.226 251.838 253.209 252.052 255.181 251.907C256.16 251.835 257.024 251.562 257.972 251.346C258.895 251.136 259.41 251.381 260.193 251.887C263.828 254.239 267.736 255.148 271.934 254.799C275.476 254.503 279.559 253.644 282.449 251.215C285.659 248.518 285.595 244.798 284.84 240.824C285.64 241.22 287.853 241.466 286.53 239.884C286.006 239.258 285.016 239.003 284.344 238.635C283.561 238.206 282.766 237.651 282.158 236.951C279.704 234.126 282.183 228.376 285.268 227.428C289.852 226.02 290.878 232.507 294.15 234.185C296.032 235.15 298 233.831 299.409 232.485C301.298 230.681 302.584 228.291 303.695 225.86C304.611 223.857 305.462 221.826 306.395 219.834C306.831 218.903 308.339 216.272 307.581 215.22C310.864 214.565 314.521 215.93 317.349 217.721C318.517 218.461 319.408 219.277 320.032 220.584C320.165 220.864 320.456 221.696 320.821 221.73C321.501 221.794 321.247 220.962 321.18 220.567Z" fill="#191847"/>
<path fill-rule="evenodd" clip-rule="evenodd" d="M207.537 428.548C198.7 428.548 191.537 435.712 191.537 444.548V551.939C191.537 560.776 198.7 567.939 207.537 567.939H340.667C349.503 567.939 356.667 560.776 356.667 551.939V444.548C356.667 435.712 349.503 428.548 340.667 428.548H207.537ZM226.99 460.024C224.781 460.024 222.99 461.814 222.99 464.024V532.464C222.99 534.673 224.781 536.464 226.99 536.464H321.213C323.422 536.464 325.213 534.673 325.213 532.464V464.023C325.213 461.814 323.422 460.024 321.213 460.024H226.99Z" fill="#C5CFD6"/>
<path fill-rule="evenodd" clip-rule="evenodd" d="M468.055 562.319C445.908 535.254 430.922 515.19 423.099 502.126C409.703 479.757 398.739 459.853 395.279 452.25C387.028 434.118 414.273 425.628 420.439 434.085C429.772 446.885 449.703 487.163 480.233 554.919L468.055 562.319Z" fill="#B28B67"/>
<path fill-rule="evenodd" clip-rule="evenodd" d="M422.671 554.45L381.453 450.622C372.638 431.695 415.21 419.254 421.689 428.062C436.398 448.06 471.358 526.947 475.74 532.905L422.671 554.45Z" fill="#2F3676"/>
<path fill-rule="evenodd" clip-rule="evenodd" d="M312.894 533.628C320.923 521.907 350.127 482.477 366.034 466.162C370.605 461.474 375.065 456.974 379.284 452.781C391.822 440.317 416.792 461.266 404.276 472.619C373.107 500.891 327.63 539.057 323.83 542.46C318.505 547.229 307.848 540.993 312.894 533.628Z" fill="#B28B67"/>
<path fill-rule="evenodd" clip-rule="evenodd" d="M317.938 528.586C317.251 527.637 315.909 527.414 315.011 528.164C313.172 529.7 310.363 532.201 309.374 533.916C307.855 536.55 305.817 542.108 305.817 542.108C308.869 543.872 360.686 573.809 360.686 573.809C360.686 573.809 366.907 567.969 362.625 564.743C358.342 561.516 355.557 559.301 355.557 559.301L336.543 533.086C336.212 532.63 335.57 532.537 335.124 532.881L331.088 535.991C331.088 535.991 325.673 535.518 323.006 533.977C321.315 533 319.235 530.376 317.938 528.586Z" fill="#E4E4E4"/>
<path fill-rule="evenodd" clip-rule="evenodd" d="M461.397 556.909C460.328 556.431 459.054 556.909 458.651 558.008C457.826 560.258 456.643 563.829 456.643 565.81C456.643 568.85 457.656 574.684 457.656 574.684C461.181 574.684 521.014 574.684 521.014 574.684C521.014 574.684 523.483 566.514 518.162 565.862C512.842 565.211 509.322 564.686 509.322 564.686L479.758 551.497C479.244 551.267 478.641 551.508 478.426 552.029L476.485 556.742C476.485 556.742 471.559 559.041 468.48 559.041C466.527 559.041 463.415 557.81 461.397 556.909Z" fill="#E4E4E4"/>
<path fill-rule="evenodd" clip-rule="evenodd" d="M366.622 455.808C366.622 455.808 315.235 447.431 297.782 444.351C264.618 438.499 254.947 420.64 260.665 381.675L321.769 381.675C333.899 385.18 423.131 425.032 423.131 425.032C433.835 430.349 431.841 446.025 429.885 451.19C429.765 451.506 375.755 544.01 375.755 544.01L325.768 512.144L366.716 459.563C366.716 459.563 368.338 456.294 366.622 455.808Z" fill="#5C63AB"/>
<path fill-rule="evenodd" clip-rule="evenodd" d="M203.217 430.693C206.509 424.01 222.956 338 222.956 338L247.554 338.092C247.554 338.092 219.452 429.203 217.719 433.501C215.468 439.083 219.292 447.194 221.885 452.694C222.286 453.545 222.658 454.334 222.973 455.04C219.375 456.651 217.647 454.704 215.825 452.651C213.767 450.333 211.589 447.879 206.463 450.266C204.483 451.188 202.609 452.278 200.778 453.343C194.454 457.021 188.644 460.401 180.74 455.521C179.487 454.747 178.114 451.834 181.432 449.558C189.697 443.886 201.608 433.96 203.217 430.693ZM410.386 397.18L378.564 366.115L367.995 384.415L401.085 403.938C409.382 417.018 414.255 422.669 415.704 420.892C416.926 419.394 416.366 417.752 415.85 416.24C415.448 415.062 415.073 413.962 415.588 413.071C416.764 411.034 423.408 412.2 429.665 413.577C435.923 414.953 434.475 411.877 433.145 410.272C427.231 405.496 419.645 401.132 410.386 397.18Z" fill="#B28B67"/>
<path fill-rule="evenodd" clip-rule="evenodd" d="M297.911 268.172L307.624 266.505C322.926 320.633 401.547 357.529 406.373 377.764C408.143 385.185 402.806 388.936 405.563 391.196L392.937 400.445C390.799 397.949 386.237 402.515 376.708 399.321C367.18 396.127 297.911 332.265 297.911 268.172Z" fill="#DB2721"/>
<path fill-rule="evenodd" clip-rule="evenodd" d="M280.142 256.837C277.939 256.682 276.027 258.344 275.873 260.548L275.379 267.628C257.098 281.705 211.79 323.772 199.983 402.083C198.743 410.309 200.986 414.715 202.778 418.235C204.004 420.644 205.019 422.638 204.563 425.156L221.087 429.721C221.087 427.861 223.17 426.446 225.857 424.621C229.763 421.967 234.947 418.445 236.864 411.425C238.681 404.77 241.342 396.459 244.521 387.213C244.821 399.458 247.141 410.72 252.197 420.047C264.809 443.317 337.692 417.798 345.307 394.058C349.37 381.39 343.604 370.755 335.979 356.689C326.3 338.834 313.624 315.452 314.25 275.368L315.094 263.292C315.248 261.088 313.586 259.177 311.383 259.023L280.142 256.837Z" fill="#FF4133"/>
<path fill-rule="evenodd" clip-rule="evenodd" d="M614.823 183.65C607.538 188.041 600.38 190.162 597.02 189.296C588.594 187.125 587.82 156.302 594.339 144.151C600.858 131.999 634.372 126.703 636.061 150.779C636.647 159.134 633.139 166.592 627.955 172.676L637.25 216H610.25L614.823 183.65Z" fill="#B28B67"/>
<path fill-rule="evenodd" clip-rule="evenodd" d="M596.102 139.439C596.338 137.971 595.87 137.25 601.773 133.114C607.677 128.977 617.208 124.099 626.808 126.222C639.267 128.977 644.215 137.195 649.019 141.19C653.35 144.792 657.695 145.212 660.271 149.681C662.846 154.15 664.216 167.008 661.977 172.119C658.888 179.171 652.796 181.07 648.349 183.101C640.723 186.585 629.944 182.906 629.683 182.296C627.663 177.581 616.79 164.28 610.25 158.692C605.441 154.583 594.992 146.33 596.102 139.439Z" fill="#5C63AB"/>
<mask id="mask0" mask-type="alpha" maskUnits="userSpaceOnUse" x="596" y="125" width="68" height="60">
<path fill-rule="evenodd" clip-rule="evenodd" d="M596.102 139.439C596.338 137.971 595.87 137.25 601.773 133.114C607.677 128.977 617.208 124.099 626.808 126.222C639.267 128.977 644.215 137.195 649.019 141.19C653.35 144.792 657.695 145.212 660.271 149.681C662.846 154.15 664.216 167.008 661.977 172.119C658.888 179.171 652.796 181.07 648.349 183.101C640.723 186.585 629.944 182.906 629.683 182.296C627.663 177.581 616.79 164.28 610.25 158.692C605.441 154.583 594.992 146.33 596.102 139.439Z" fill="white"/>
</mask>
<g mask="url(#mask0)">
<path fill-rule="evenodd" clip-rule="evenodd" d="M633.162 173.501C646.073 157.578 649.111 138.375 649.111 138.375L653 140.835C653 140.835 648.217 161.82 633.162 173.501ZM628.25 182.25C649.144 163.891 654.127 143.26 654.127 143.26L658.625 144.586C658.625 144.586 652.426 167.657 628.25 182.25Z" fill="black" fill-opacity="0.2"/>
</g>
<path fill-rule="evenodd" clip-rule="evenodd" d="M655.213 311L612.941 449.467L592.464 567.223H576.408L598.046 311H655.213Z" fill="#997659"/>
<path fill-rule="evenodd" clip-rule="evenodd" d="M670.336 311C667.465 387.026 670.844 426.241 671.486 433.148C672.129 440.055 680.928 484.842 701.76 569.542L684.651 563.655C651.729 485.973 640.51 445.6 636.734 435.399C632.958 425.199 622.929 383.732 606.648 311H670.336Z" fill="#B28B67"/>
<path fill-rule="evenodd" clip-rule="evenodd" d="M698.761 562.204C699.831 561.725 701.106 562.203 701.509 563.303C702.334 565.556 703.517 569.132 703.517 571.115C703.517 574.159 702.504 580 702.504 580C698.979 580 639.146 580 639.146 580C639.146 580 636.676 571.819 641.997 571.167C647.318 570.515 650.838 569.989 650.838 569.989L680.401 556.784C680.916 556.554 681.519 556.795 681.734 557.317L683.675 562.035C683.675 562.035 688.601 564.338 691.68 564.338C693.632 564.338 696.743 563.106 698.761 562.204Z" fill="#E4E4E4"/>
<path fill-rule="evenodd" clip-rule="evenodd" d="M593.168 562.204C594.238 561.725 595.513 562.203 595.916 563.303C596.74 565.556 597.923 569.132 597.923 571.115C597.923 574.159 596.911 580 596.911 580C593.386 580 533.553 580 533.553 580C533.553 580 531.083 571.819 536.404 571.167C541.725 570.515 545.245 569.989 545.245 569.989L574.808 556.784C575.323 556.554 575.926 556.795 576.14 557.317L578.082 562.035C578.082 562.035 583.007 564.338 586.087 564.338C588.039 564.338 591.15 563.106 593.168 562.204Z" fill="#E4E4E4"/>
<path fill-rule="evenodd" clip-rule="evenodd" d="M660.83 311L642.857 381.547H587.959L596.145 311H660.83Z" fill="#69A1AC"/>
<path fill-rule="evenodd" clip-rule="evenodd" d="M670.94 311C679.811 337.642 674.31 381.547 674.31 381.547H618.289L602.885 311H670.94Z" fill="#89C5CC"/>
<path fill-rule="evenodd" clip-rule="evenodd" d="M500.054 198.841L544.059 205.56L535.798 225.004L500.255 210.331C484.801 211.573 477.347 211.082 477.894 208.857C478.356 206.981 480.006 206.44 481.525 205.942C482.709 205.555 483.814 205.193 484.217 204.245C485.136 202.082 480.201 197.48 475.331 193.313C470.461 189.145 473.792 188.451 475.876 188.547C483.257 190.396 491.316 193.827 500.054 198.841ZM526.359 310.395L558.235 279.352L568.815 297.633L535.672 317.145C527.359 330.214 522.478 335.861 521.027 334.086C519.804 332.59 520.365 330.949 520.882 329.438C521.285 328.261 521.661 327.162 521.145 326.272C519.968 324.238 513.315 325.404 507.048 326.781C500.781 328.158 502.232 325.084 503.564 323.48C509.488 318.708 517.086 314.346 526.359 310.395Z" fill="#B28B67"/>
<path fill-rule="evenodd" clip-rule="evenodd" d="M603.573 201.444C589.283 240.183 565.18 271.727 528.645 306.132L546.436 321.262C589.371 298.093 611.853 284.595 618.81 248.914C620.556 239.959 618.789 212.442 618.542 197.869L603.573 201.444Z" fill="#2026A2"/>
<path fill-rule="evenodd" clip-rule="evenodd" d="M674.538 313.848L588.756 325.904C588.756 325.904 605.432 233.073 601.416 199.916C601.279 198.789 603.081 196.516 604.037 196.646C614.529 198.073 625.336 191.483 625.336 191.483C650.261 221.274 662.942 260.482 674.538 313.848Z" fill="#F2F2F2"/>
<path fill-rule="evenodd" clip-rule="evenodd" d="M610.819 244.317C605.484 303.568 612.701 350.442 642.28 346.285L688.019 339.857C688.434 290.103 659.846 225.217 637.356 193.623C636.497 192.416 634.713 190.165 631.324 190.641L618.033 192.509C618.03 192.528 618.027 192.546 618.023 192.564C614.028 193.159 609.645 193.924 604.897 194.753C580.457 199.017 546.378 204.964 506.117 198.032L504.759 221.327C542.67 238.764 580.311 251.109 610.819 244.317Z" fill="#1F28CF"/>
</svg>
