<svg
  width="31"
  height="31"
  viewBox="0 0 31 31"
  fill="none"
  xmlns="http://www.w3.org/2000/svg"
>
  <path
    d="M27.7154 13.5032H26.7085V13.4513H15.4585V18.4513H22.5229C21.4922 21.3619 18.7229 23.4513 15.4585 23.4513C11.3166 23.4513 7.9585 20.0932 7.9585 15.9513C7.9585 11.8094 11.3166 8.45129 15.4585 8.45129C17.3704 8.45129 19.1097 9.17254 20.4341 10.3507L23.9697 6.81504C21.7372 4.73442 18.751 3.45129 15.4585 3.45129C8.55537 3.45129 2.9585 9.04817 2.9585 15.9513C2.9585 22.8544 8.55537 28.4513 15.4585 28.4513C22.3616 28.4513 27.9585 22.8544 27.9585 15.9513C27.9585 15.1132 27.8722 14.295 27.7154 13.5032Z"
    fill="#FFC107"
  />
  <path
    d="M4.3999 10.1332L8.50678 13.145C9.61803 10.3938 12.3093 8.45129 15.4587 8.45129C17.3705 8.45129 19.1099 9.17254 20.4343 10.3507L23.9699 6.81504C21.7374 4.73442 18.7512 3.45129 15.4587 3.45129C10.6574 3.45129 6.49365 6.16192 4.3999 10.1332Z"
    fill="#FF3D00"
  />
  <path
    d="M15.4587 28.4514C18.6874 28.4514 21.6212 27.2157 23.8393 25.2064L19.9706 21.9326C18.6734 22.9191 17.0884 23.4526 15.4587 23.4514C12.2074 23.4514 9.44682 21.3782 8.40682 18.4851L4.33057 21.6257C6.39932 25.6739 10.6006 28.4514 15.4587 28.4514Z"
    fill="#4CAF50"
  />
  <path
    d="M27.7154 13.5032H26.7085V13.4513H15.4585V18.4513H22.5229C22.0299 19.8366 21.1418 21.047 19.9685 21.9332L19.9704 21.9319L23.8391 25.2057C23.5654 25.4544 27.9585 22.2013 27.9585 15.9513C27.9585 15.1132 27.8722 14.295 27.7154 13.5032Z"
    fill="#1976D2"
  />
</svg>
