<svg width="30" height="30" viewBox="0 0 30 30" fill="none" xmlns="http://www.w3.org/2000/svg">
<path d="M7.54676 22.7344C7.31239 22.6875 7.12489 22.6406 6.89051 22.5469C6.65614 22.4531 6.46864 22.4063 6.28114 22.3125C5.85926 22.125 5.48426 21.8906 5.10926 21.6094C4.35926 21.0938 3.74989 20.3906 3.28114 19.5469C2.81238 18.75 2.53114 17.8125 2.48426 16.9219C2.43739 16.4531 2.48426 16.0313 2.53113 15.5625C2.57801 15.3281 2.62488 15.1406 2.67176 14.9062C2.71863 14.6719 2.81238 14.4844 2.85926 14.25L2.90613 14.9062C2.90613 15.1406 2.95301 15.3281 2.99989 15.5625C3.04676 15.9844 3.14051 16.4063 3.23426 16.7813C3.42176 17.5781 3.70301 18.3281 4.12489 19.0313C4.54676 19.7344 5.01551 20.3906 5.62489 21C5.90614 21.2813 6.23426 21.5625 6.56239 21.8438C6.70301 21.9844 6.89051 22.125 7.07801 22.2656L7.54676 22.7344Z" fill="#42ADE2"/>
<path d="M7.40625 24.4219C7.26563 24.5156 7.07812 24.5625 6.89062 24.6094C6.70312 24.6562 6.5625 24.7031 6.375 24.7031C6.04688 24.75 5.67188 24.7969 5.29688 24.75C4.59375 24.7031 3.84375 24.5156 3.23438 24.1875C2.57813 23.8594 2.01563 23.3437 1.64062 22.7344C1.45312 22.4531 1.26563 22.125 1.125 21.7969C1.07813 21.6562 1.03125 21.4687 0.984375 21.2812C0.984375 21.1406 0.9375 21 0.9375 20.8125C1.07813 20.9531 1.17188 21.0937 1.26563 21.1875C1.40625 21.3281 1.5 21.4687 1.59375 21.5625C1.82813 21.7969 2.01563 22.0312 2.25 22.2187C2.71875 22.6406 3.1875 23.0156 3.75 23.2969C4.26563 23.5781 4.875 23.8125 5.4375 24C5.71875 24.0937 6.04688 24.1406 6.375 24.2344C6.51563 24.2812 6.70313 24.2812 6.84375 24.3281C7.07813 24.375 7.21875 24.375 7.40625 24.4219" fill="#42ADE2"/>
<path d="M18 1.64062C18.2344 1.6875 18.4219 1.78125 18.6562 1.875C18.8906 1.96875 19.0781 2.0625 19.2656 2.15625C19.6875 2.39062 20.0625 2.625 20.4375 2.90625C21.1875 3.46875 21.7969 4.21875 22.2188 5.0625C22.6406 5.90625 22.875 6.84375 22.875 7.73438C22.875 8.20312 22.8281 8.625 22.7344 9.09375C22.6875 9.32812 22.6406 9.51562 22.5469 9.75C22.4531 9.98437 22.4062 10.1719 22.3125 10.3594L22.2656 9.70313C22.2656 9.46875 22.2656 9.28125 22.2188 9.04687L22.0781 7.78125C21.9375 6.98438 21.6563 6.1875 21.2813 5.4375C20.9063 4.6875 20.4375 4.03125 19.875 3.42188C19.5938 3.09375 19.2656 2.8125 18.9844 2.48438C18.8437 2.34375 18.6563 2.20313 18.4688 2.0625L18 1.64062" fill="#42ADE2"/>
<path d="M22.0781 1.45312C22.2656 1.5 22.4063 1.54688 22.5469 1.64063C22.6875 1.6875 22.875 1.78125 23.0156 1.875C23.2969 2.0625 23.5781 2.25 23.8594 2.48438C24.375 2.95313 24.7969 3.51563 25.0313 4.17188C25.3125 4.82813 25.4063 5.53125 25.3125 6.23438C25.2656 6.5625 25.1719 6.89063 25.0781 7.21875C25.0313 7.35938 24.9375 7.54688 24.8906 7.6875C24.7969 7.82813 24.75 7.96875 24.6094 8.10938V7.17188C24.6094 6.84375 24.5625 6.5625 24.5625 6.28125C24.4688 5.67188 24.375 5.10938 24.1406 4.59375C23.9063 4.03125 23.625 3.5625 23.2969 3.04688C23.1094 2.8125 22.9219 2.53125 22.7344 2.29688C22.6406 2.15625 22.5469 2.0625 22.4063 1.92188C22.3125 1.6875 22.1719 1.54688 22.0781 1.45312" fill="#42ADE2"/>
<path d="M4.68759 8.4375C3.75009 8.85938 3.42196 9.98438 3.84384 10.9219L9.75009 23.25L13.0313 21.7031L7.12509 9.32813C6.70321 8.39063 5.62509 7.96875 4.68759 8.4375" fill="#FFDD67"/>
<path d="M20.2032 18.2344L23.672 16.5938L16.922 2.53125C16.4532 1.59375 15.3282 1.17188 14.3439 1.64063C13.4064 2.10938 12.9845 3.23438 13.4532 4.21875L20.2032 18.2344Z" fill="#FFDD67"/>
<path d="M14.3906 1.59375C14.2969 1.64063 14.2031 1.6875 14.1094 1.78125C15 1.54688 15.9375 1.96876 16.3594 2.81251L23.1094 16.875L23.7187 16.5938L16.9688 2.53126C16.5 1.54688 15.375 1.125 14.3906 1.59375" fill="#EBA352"/>
<path d="M13.0311 21.6563L16.6405 19.9219L9.74984 5.57813C9.28109 4.59375 8.06235 4.125 7.07797 4.59375C6.09359 5.0625 5.67172 6.28125 6.14047 7.26563L13.0311 21.6563Z" fill="#FFDD67"/>
<path d="M7.07813 4.64063C6.98438 4.6875 6.89063 4.73438 6.79688 4.82813C7.6875 4.59375 8.71875 5.01563 9.14063 5.90625L13.4063 14.8594L14.4375 15.4688L9.75 5.625C9.28125 4.59375 8.10938 4.17188 7.07813 4.64063" fill="#EBA352"/>
<path d="M16.078 18.7969L19.6873 17.0625L12.7967 2.71875C12.328 1.73438 11.1092 1.26562 10.1248 1.78125C9.14047 2.25 8.71859 3.46875 9.18734 4.45313L16.078 18.7969Z" fill="#FFDD67"/>
<path d="M10.125 1.73438C10.0313 1.78125 9.9375 1.875 9.84375 1.92188C10.7344 1.6875 11.7656 2.10938 12.1875 3L17.0156 13.125L18.0469 13.7344L12.7969 2.71875C12.3281 1.6875 11.1094 1.26563 10.125 1.73438" fill="#EBA352"/>
<path d="M4.6875 8.4375C4.59375 8.48438 4.5 8.53125 4.40625 8.625C5.25 8.39063 6.14062 8.81251 6.51562 9.65626L10.0312 17.0156L11.0625 17.625L7.125 9.375C6.70312 8.39063 5.625 7.96875 4.6875 8.4375Z" fill="#EBA352"/>
<path d="M28.5 7.03125C27.2343 6.04687 25.1718 7.125 24.1406 10.5C23.4375 12.8437 23.3437 13.5469 21.8437 14.25L21 12.5156C21 12.5156 7.68745 18.9375 8.20308 19.9687C8.20308 19.9687 9.79683 24.9375 12.5156 27.2344C16.5468 30.7031 25.9687 27 26.3906 18.0469C26.625 12.8437 29.8593 8.10937 28.5 7.03125Z" fill="#FFDD67"/>
<path d="M28.5 7.03125C28.2656 6.84375 27.9844 6.75 27.7031 6.70312C27.75 6.75 27.8438 6.75 27.8906 6.79687C29.2969 7.875 27.8438 10.3594 27.0469 12.6094C26.3906 14.3906 25.8281 16.2188 25.9219 18C26.2969 25.7813 18.4688 29.4844 13.7812 28.0781C18.375 30 26.9063 26.3438 26.5313 18.2344C26.4375 16.4531 26.9531 14.7188 27.6563 12.8438C28.4063 10.5938 29.8594 8.10938 28.5 7.03125" fill="#EBA352"/>
<path d="M22.2657 14.0625C19.3594 14.3906 15.0938 18.5625 18.0938 23.1094C15.8907 18.5156 19.5001 15.4219 21.7969 14.3438C22.0313 14.1563 22.2657 14.0625 22.2657 14.0625" fill="#EBA352"/>
</svg>
