<svg width="50" height="50" viewBox="0 0 50 50" fill="none" xmlns="http://www.w3.org/2000/svg">
<path d="M25.9562 3.45937C25.679 3.24321 25.3375 3.12582 24.9859 3.12582C24.6344 3.12582 24.2929 3.24321 24.0156 3.45937L1.5625 20.9672L3.50469 23.4234L6.25 21.2828V40.625C6.25165 41.4533 6.58142 42.2472 7.16712 42.8329C7.75281 43.4186 8.54671 43.7483 9.375 43.75H40.625C41.4533 43.7483 42.2472 43.4186 42.8329 42.8329C43.4186 42.2472 43.7483 41.4533 43.75 40.625V21.2969L46.4953 23.4375L48.4375 20.9812L25.9562 3.45937ZM28.125 40.625H21.875V28.125H28.125V40.625ZM31.25 40.625V28.125C31.2492 27.2964 30.9197 26.5021 30.3338 25.9162C29.7479 25.3303 28.9535 25.0008 28.125 25H21.875C21.0465 25.0008 20.2521 25.3303 19.6662 25.9162C19.0803 26.5021 18.7508 27.2964 18.75 28.125V40.625H9.375V18.8469L25 6.675L40.625 18.8625V40.625H31.25Z" fill="#323377"/>
</svg>
