<svg width="36" height="34" viewBox="0 0 36 34" fill="none" xmlns="http://www.w3.org/2000/svg">
<path d="M15.6667 15.3333V10.3333L24.0001 17L15.6667 23.6667V18.6667H0.666748V15.3333H15.6667ZM3.09675 22H6.63675C7.80016 24.8651 9.92293 27.237 12.6419 28.7099C15.361 30.1828 18.5073 30.6652 21.5427 30.0746C24.5781 29.484 27.3139 27.857 29.2823 25.4721C31.2507 23.0871 32.3292 20.0923 32.3334 17C32.3351 13.9044 31.2597 10.9047 29.2916 8.51538C27.3235 6.12603 24.5853 4.49594 21.5467 3.9047C18.5081 3.31346 15.3585 3.79791 12.638 5.27497C9.9176 6.75203 7.79586 9.12964 6.63675 12H3.09675C5.22008 5.23834 11.5367 0.333344 19.0001 0.333344C28.2051 0.333344 35.6667 7.79501 35.6667 17C35.6667 26.205 28.2051 33.6667 19.0001 33.6667C11.5367 33.6667 5.22008 28.7617 3.09675 22Z" fill="#323377"/>
</svg>
