<svg width="245" height="61" fill="none" xmlns="http://www.w3.org/2000/svg">
  <path d="M1.776 18.975h11.132V49h7.6V18.975H31.64v-6.339H1.776v6.34zM44.89 49.533c6.747 0 11.292-3.285 12.358-8.346l-6.996-.461c-.764 2.077-2.717 3.16-5.238 3.16-3.782 0-6.179-2.503-6.179-6.57V37.3H57.41v-2.077c0-9.269-5.611-13.85-12.82-13.85-8.026 0-13.228 5.7-13.228 14.116 0 8.647 5.131 14.045 13.53 14.045zM38.836 32.61c.16-3.107 2.521-5.592 5.877-5.592 3.285 0 5.558 2.343 5.575 5.593H38.837zm29.39-10.884h-7.812l7.812 13.637L60.13 49h7.812l5.291-9.428L78.613 49h7.724l-8.114-13.636 7.9-13.637h-7.758l-5.132 9.535-5.007-9.535zm36.897 0h-5.132v-6.534h-7.564v6.534h-3.729v5.682h3.73v14.205c-.036 5.344 3.604 7.99 9.09 7.759 1.953-.071 3.338-.462 4.102-.71l-1.19-5.629c-.373.071-1.172.249-1.882.249-1.509 0-2.557-.569-2.557-2.664V27.41h5.132v-5.682zm29.181 2.664h7.812c-.994-7.191-7.333-12.252-15.554-12.252-9.605 0-17.009 6.925-17.009 18.715 0 11.505 6.924 18.643 17.169 18.643 9.18 0 15.732-5.806 15.732-15.376V29.54h-15.217v5.788h7.813c-.107 4.51-3.179 7.369-8.292 7.369-5.771 0-9.411-4.315-9.411-11.914 0-7.564 3.782-11.843 9.34-11.843 3.959 0 6.64 2.041 7.617 5.45zm31.272 12.997c.018 3.657-2.486 5.575-5.202 5.575-2.859 0-4.705-2.006-4.723-5.22V21.727h-7.564v17.365c.018 6.375 3.746 10.263 9.233 10.263 4.101 0 7.049-2.113 8.274-5.309h.284V49h7.262V21.727h-7.564v15.66zM179.19 49h7.564V33.57c0-3.355 2.451-5.664 5.789-5.664 1.047 0 2.485.178 3.196.409v-6.712a11.358 11.358 0 00-2.38-.266c-3.054 0-5.557 1.775-6.551 5.149h-.285v-4.759h-7.333V49zm37.949-11.612c.017 3.657-2.486 5.575-5.203 5.575-2.858 0-4.705-2.006-4.723-5.22V21.727h-7.564v17.365c.018 6.375 3.747 10.263 9.233 10.263 4.102 0 7.049-2.113 8.274-5.309h.285V49h7.262V21.727h-7.564v15.66z" fill="#323377"/>
  <circle cx="236" cy="17" r="9" fill="#5DCA29"/>
</svg>
