<svg width="104" height="73" viewBox="0 0 104 73" fill="none" xmlns="http://www.w3.org/2000/svg">
<circle cx="71.5" cy="35.5" r="32.5" fill="#5DCA29"/>
<path d="M80.7273 28.4688H90.1023C88.9091 19.8395 81.3026 13.767 71.4375 13.767C59.9105 13.767 51.0256 22.0767 51.0256 36.2244C51.0256 50.0312 59.3352 58.5966 71.6293 58.5966C82.6449 58.5966 90.5071 51.6293 90.5071 40.1449V34.6477H72.2472V41.5938H81.6222C81.4943 47.0057 77.8082 50.4361 71.6719 50.4361C64.7472 50.4361 60.3793 45.2585 60.3793 36.1392C60.3793 27.0625 64.9176 21.9276 71.5866 21.9276C76.3381 21.9276 79.5554 24.3778 80.7273 28.4688Z" fill="white"/>
<path d="M2.13068 21.9702H15.4901V58H24.6094V21.9702H37.9688V14.3636H2.13068V21.9702Z" fill="#323377"/>
</svg>
