 <svg

  width="1418"
  height="1294"
  viewBox="0 0 1418 1294"
  fill="none"
  xmlns="http://www.w3.org/2000/svg"
>
  <g clip-path="url(#clip0)">
    <path
      d="M531.55 211.955C365.252 653.26 396.701 929.937 625.88 1041.99C969.658 1210.06 1787.09 1277.29 2128.78 1641.89C2470.45 2006.48 3512.26 1724.62 3690.44 1098.87C3868.61 473.117 4189.42 -491.371 2497.79 -491.371C1370.03 -491.371 714.629 -256.934 531.556 211.955H531.55Z"
      fill="#D6F2FF"
    />
    <path
      d="M613.967 186.023C456.578 603.686 486.342 865.542 703.244 971.589C1028.61 1130.66 1802.25 1194.29 2125.63 1539.35C2449 1884.41 3435 1617.65 3603.63 1025.42C3772.26 433.194 4075.88 -479.625 2474.87 -479.625C1407.53 -479.625 787.238 -257.747 613.973 186.023H613.967Z"
      fill="#C7E1F3"
    />
    <path
      d="M696.384 160.09C547.903 554.113 575.983 801.146 780.607 901.19C1087.55 1051.26 1817.4 1111.28 2122.48 1436.81C2427.55 1762.34 3357.74 1510.69 3516.82 951.978C3675.91 393.271 3962.34 -467.879 2451.96 -467.879C1445.03 -467.879 859.847 -258.56 696.389 160.09H696.384Z"
      fill="#B8CFE6"
    />
    <path
      d="M778.801 134.158C639.229 504.539 665.623 736.751 857.971 830.792C1146.5 971.854 1832.56 1028.28 2119.33 1334.28C2406.09 1640.27 3280.47 1403.72 3430.01 878.533C3579.55 353.348 3848.8 -456.133 2429.04 -456.133C1482.52 -456.133 932.456 -259.374 778.806 134.158H778.801Z"
      fill="#A9BEDA"
    />
    <path
      d="M861.218 108.226C730.555 454.966 755.265 672.355 935.334 760.394C1205.45 892.452 1847.71 945.274 2116.18 1231.74C2384.64 1518.21 3203.21 1296.75 3343.2 805.087C3483.2 313.425 3735.26 -444.388 2406.12 -444.388C1520.02 -444.388 1005.07 -260.187 861.223 108.226H861.218Z"
      fill="#9AADCE"
    />
    <path
      d="M943.635 82.2933C821.881 405.392 844.906 607.959 1012.7 689.995C1264.39 813.05 1862.87 862.27 2113.03 1129.21C2363.19 1396.14 3125.94 1189.78 3256.39 731.642C3386.84 273.502 3621.72 -432.642 2383.2 -432.642C1557.52 -432.642 1077.67 -261 943.639 82.2933H943.635Z"
      fill="#8B9BC1"
    />
    <path
      d="M1026.05 56.361C913.207 355.818 934.547 543.563 1090.06 619.597C1323.34 733.647 1878.03 779.266 2109.88 1026.67C2341.73 1274.07 3048.68 1082.81 3169.58 658.196C3290.49 233.578 3508.18 -420.896 2360.29 -420.896C1595.02 -420.896 1150.28 -261.813 1026.06 56.361H1026.05Z"
      fill="#7D8AB5"
    />
    <path
      d="M1108.47 30.4286C1004.53 306.244 1024.19 479.168 1167.43 549.199C1382.29 654.245 1893.18 696.263 2106.74 924.136C2320.28 1152 2971.42 975.845 3082.77 584.75C3194.13 193.655 3394.64 -409.15 2337.37 -409.15C1632.52 -409.15 1222.89 -262.627 1108.47 30.4286H1108.47Z"
      fill="#6E79A9"
    />
    <path
      d="M1190.89 4.49631C1095.86 256.671 1113.83 414.772 1244.79 478.8C1441.23 574.843 1908.34 613.259 2103.59 821.6C2298.83 1029.94 2894.15 868.877 2995.97 511.305C3097.78 153.732 3281.1 -397.404 2314.45 -397.404C1670.02 -397.404 1295.5 -263.44 1190.89 4.49631H1190.89Z"
      fill="#5F679C"
    />
    <path
      d="M1273.3 -21.4359C1187.18 207.097 1203.47 350.377 1322.15 408.402C1500.18 495.441 1923.49 530.255 2100.44 719.064C2277.38 907.869 2816.89 761.909 2909.16 437.859C3001.43 113.809 3167.56 -385.658 2291.53 -385.658C1707.51 -385.658 1368.11 -264.253 1273.31 -21.4359H1273.3Z"
      fill="#505690"
    />
    <path
      d="M1355.72 -47.3682C1278.51 157.524 1293.11 285.981 1399.52 338.004C1559.13 416.038 1938.65 447.251 2097.29 616.528C2255.92 785.802 2739.62 654.942 2822.35 364.414C2905.07 73.8859 3054.02 -373.912 2268.62 -373.912C1745.01 -373.912 1440.72 -265.066 1355.72 -47.3682H1355.72Z"
      fill="#414584"
    />
    <path
      d="M1438.14 -73.3006C1369.84 107.95 1382.75 221.585 1476.88 267.605C1618.07 336.636 1953.81 364.247 2094.14 513.992C2234.47 663.734 2662.36 547.973 2735.54 290.968C2808.72 33.9626 2940.48 -362.167 2245.7 -362.167C1782.51 -362.167 1513.33 -265.88 1438.14 -73.3006H1438.14Z"
      fill="#323377"
    />
  </g>
  <defs>
    <clipPath id="clip0">
      <rect
        width="2484"
        height="1481"
        fill="white"
        transform="translate(0 -187)"
      />
    </clipPath>
  </defs>
</svg>
