<svg width="29" height="27" viewBox="0 0 29 27" fill="none" xmlns="http://www.w3.org/2000/svg">
<path d="M28.3811 13.2621C25.5036 7.43999 20.0905 3.82758 14.25 3.82758C8.40954 3.82758 2.99642 7.43999 0.118924 13.2621C0.0404865 13.4187 0 13.5877 0 13.7586C0 13.9295 0.0404865 14.0985 0.118924 14.2552C2.99642 20.0772 8.40954 23.6896 14.25 23.6896C20.0905 23.6896 25.5036 20.0772 28.3811 14.2552C28.4595 14.0985 28.5 13.9295 28.5 13.7586C28.5 13.5877 28.4595 13.4187 28.3811 13.2621V13.2621ZM14.25 21.2069C9.73432 21.2069 5.46081 18.3641 2.99642 13.7586C5.46081 9.15309 9.73432 6.31033 14.25 6.31033C18.7657 6.31033 23.0392 9.15309 25.5036 13.7586C23.0392 18.3641 18.7657 21.2069 14.25 21.2069V21.2069ZM14.25 8.79309C13.123 8.79309 12.0214 9.08432 11.0844 9.62993C10.1473 10.1756 9.41699 10.9511 8.98572 11.8584C8.55445 12.7657 8.44161 13.7641 8.66147 14.7273C8.88133 15.6906 9.42401 16.5753 10.2209 17.2698C11.0178 17.9642 12.0331 18.4371 13.1384 18.6287C14.2437 18.8203 15.3894 18.722 16.4305 18.3462C17.4717 17.9703 18.3616 17.3339 18.9877 16.5173C19.6138 15.7007 19.948 14.7407 19.948 13.7586C19.948 12.4417 19.3477 11.1787 18.2791 10.2475C17.2105 9.31624 15.7612 8.79309 14.25 8.79309V8.79309ZM14.25 16.2414C13.6865 16.2414 13.1357 16.0958 12.6672 15.8229C12.1987 15.5501 11.8335 15.1624 11.6179 14.7087C11.4022 14.2551 11.3458 13.7559 11.4557 13.2742C11.5657 12.7926 11.837 12.3503 12.2354 12.003C12.6339 11.6558 13.1415 11.4194 13.6942 11.3236C14.2468 11.2278 14.8197 11.2769 15.3403 11.4648C15.8609 11.6528 16.3058 11.971 16.6189 12.3793C16.9319 12.7876 17.099 13.2676 17.099 13.7586C17.099 14.4171 16.7988 15.0486 16.2646 15.5142C15.7303 15.9798 15.0056 16.2414 14.25 16.2414Z" fill="#8692A6"/>
<line y1="-2" x2="33.1035" y2="-2" transform="matrix(0.688749 -0.724999 0.81117 0.58481 4.75 27)" stroke="#8692A6" stroke-width="4"/>
</svg>
